<?xml version="1.0" encoding="UTF-8" standalone="no"?>
<svg
   xmlns:dc="http://purl.org/dc/elements/1.1/"
   xmlns:cc="http://creativecommons.org/ns#"
   xmlns:rdf="http://www.w3.org/1999/02/22-rdf-syntax-ns#"
   xmlns:svg="http://www.w3.org/2000/svg"
   xmlns="http://www.w3.org/2000/svg"
   xmlns:sodipodi="http://sodipodi.sourceforge.net/DTD/sodipodi-0.dtd"
   xmlns:inkscape="http://www.inkscape.org/namespaces/inkscape"
   x="0"
   y="0"
   width="700"
   height="700"
   version="1.1"
   id="svg2"
   inkscape:version="0.91 r13725"
   sodipodi:docname="icon2.svg">
  <metadata
     id="metadata32">
    <rdf:RDF>
      <cc:Work
         rdf:about="">
        <dc:format>image/svg+xml</dc:format>
        <dc:type
           rdf:resource="http://purl.org/dc/dcmitype/StillImage" />
        <dc:title></dc:title>
      </cc:Work>
    </rdf:RDF>
  </metadata>
  <sodipodi:namedview
     pagecolor="#ffffff"
     bordercolor="#666666"
     borderopacity="1"
     objecttolerance="10"
     gridtolerance="10"
     guidetolerance="10"
     inkscape:pageopacity="0"
     inkscape:pageshadow="2"
     inkscape:window-width="1366"
     inkscape:window-height="745"
     id="namedview30"
     showgrid="false"
     inkscape:zoom="0.61458333"
     inkscape:cx="15.842362"
     inkscape:cy="332.74576"
     inkscape:window-x="-8"
     inkscape:window-y="-8"
     inkscape:window-maximized="1"
     inkscape:current-layer="svg2" />
  <defs
     id="defs4">
    <linearGradient
       x1="5.9825201"
       y1="10.53535"
       x2="47.782558"
       y2="59.197651"
       gradientUnits="userSpaceOnUse"
       id="color-1">
      <stop
         offset="0"
         stop-color="#000000"
         stop-opacity="0.71"
         id="stop7" />
      <stop
         offset="1"
         stop-color="#000000"
         stop-opacity="0"
         id="stop9" />
    </linearGradient>
    <filter
       id="dropshadow">
      <feColorMatrix
         type="matrix"
         values="0 0 0 0 .05  0 0 0 0 .15  0 0 0 0 .1  0 0 0 .8 0"
         id="feColorMatrix12" />
      <feOffset
         dx="0"
         dy="1"
         id="feOffset14" />
      <feGaussianBlur
         stdDeviation="1"
         id="feGaussianBlur16"
         result="result1" />
      <feComposite
         in="SourceGraphic"
         id="feComposite18"
         in2="result1" />
    </filter>
  </defs>
  <g
     stroke-width="none"
     stroke-miterlimit="none"
     font-weight="normal"
     font-size="none"
     mix-blend-mode="normal"
     id="g20"
     transform="matrix(10.176767,0,0,10.140564,87.290127,219.34612)"
     style="font-weight:normal;font-family:none;text-anchor:start;mix-blend-mode:normal;fill:none;stroke:none;stroke-linecap:butt;stroke-linejoin:miter;stroke-dasharray:none;stroke-dashoffset:0">
    <g
       id="svg4772"
       stroke-miterlimit="4"
       font-size="14"
       style="font-size:14px;font-family:'Open Sans', sans-serif;fill:#000000;stroke:none;stroke-width:1;stroke-miterlimit:4">
      <g
         id="layer1" />
    </g>
    <path
       d="M 5,45 C 3.89543,45 3,44.10457 3,43 L 3,5 C 3,3.89543 3.89543,3 5,3 l 38,0 c 1.10457,0 2,0.89543 2,2 l 0,38 c 0,1.10457 -0.89543,2 -2,2 z"
       stroke-miterlimit="10"
       font-size="12"
       id="path24"
       inkscape:connector-curvature="0"
       style="font-size:12px;font-family:sans-serif;fill:#0266c8;stroke-width:1;stroke-miterlimit:10;filter:url(#dropshadow)" />
    <path
       d="M 21.83794,45 9.66591,32.82797 C 6.81678,29.97884 5.37762,24.95469 6.22299,20.00758 7.2603,13.93721 11.4093,9.90256 15.8795,10.6172 c 1.55498,0.24859 2.97777,1.04452 4.17275,2.23949 L 44.09388,36.89832 C 44.41275,37.21719 44.71539,37.56447 45,37.93734 L 45,43 c 0,1.10457 -0.89543,2 -2,2 z"
       stroke-miterlimit="10"
       font-size="12"
       id="path26"
       style="font-size:12px;font-family:sans-serif;fill:url(#color-1);stroke-width:1;stroke-miterlimit:10"
       inkscape:connector-curvature="0" />
    <path
       d="M 22.78534,28.40021 C 20.75452,33.96714 16.04079,36.54754 11.81443,34.40593 7.58808,32.26431 5.18567,26.07795 6.22298,20.00758 7.2603,13.93721 11.40929,9.90256 15.87949,10.6172 c 4.4702,0.71464 7.84792,5.95256 7.86143,12.19092 l -8.87851,0.03695 z"
       stroke-miterlimit="4"
       font-size="14"
       id="path28"
       inkscape:connector-curvature="0"
       style="font-size:14px;font-family:'Open Sans', sans-serif;fill:#ffc107;stroke:#ffc107;stroke-width:0;stroke-miterlimit:4" />
  </g>
  <path
     inkscape:connector-curvature="0"
     id="path1"
     d="m 384.8759,547.7332 c 11.46114,-16.32034 18.19294,-35.52404 18.19294,-56.15629 0,-20.96958 -6.91598,-40.45268 -18.69793,-56.93108"
     style="display:inline;fill:none;stroke:#ffc107;stroke-width:27.98227882;stroke-linecap:round;stroke-opacity:1" />
  <path
     inkscape:connector-curvature="0"
     id="path2"
     d="m 421.84506,391.74598 c 21.95401,26.2832 34.96002,58.81295 34.96002,94.04174 0,34.90199 -12.78026,67.14711 -34.38956,93.29855"
     style="display:inline;fill:none;stroke:#ffc107;stroke-width:27.98227882;stroke-linecap:round;stroke-opacity:1" />
  <path
     inkscape:connector-curvature="0"
     id="path4173"
     d="m 463.39966,612.56998 c 31.29406,-35.13919 50.01589,-79.49272 50.01589,-127.74182 0,-48.58652 -18.96543,-93.20892 -50.61596,-128.45351"
     style="display:inline;fill:none;stroke:#ffc107;stroke-width:27.98227882;stroke-linecap:round;stroke-opacity:1" />
  <path
     style="fill:#0266c8;fill-opacity:1;stroke:none;stroke-opacity:1"
     id="path4174"
     sodipodi:type="arc"
     sodipodi:cx="232.48952"
     sodipodi:cy="421.75626"
     sodipodi:rx="14.110073"
     sodipodi:ry="12.543259"
     sodipodi:start="0.46823344"
     sodipodi:end="6.2266715"
     sodipodi:open="true"
     d="m 245.08088,427.41716 a 14.110073,12.543259 0 0 1 -17.25758,6.17661 14.110073,12.543259 0 0 1 -9.14593,-14.40147 14.110073,12.543259 0 0 1 14.86481,-9.94435 14.110073,12.543259 0 0 1 13.03488,11.79982" />
</svg>
